<svg xmlns="http://www.w3.org/2000/svg" viewBox="0 0 106.68 93.41"><defs><style>.cls-1{fill:#898989;}</style></defs><g id="Layer_2" data-name="Layer 2"><g id="Layer_1-2" data-name="Layer 1"><path class="cls-1" d="M106.54,36.13a5.94,5.94,0,0,0-.58-1.37l-.38-.63c-.17-.19-.33-.37-.51-.55s-.35-.35-.54-.51l-.63-.44a7,7,0,0,0-.89-.52,16.26,16.26,0,0,0-3.39-1.27A28.42,28.42,0,0,0,93.08,30a42.28,42.28,0,0,0-7.92.61,38.71,38.71,0,0,0-8.65,2.47,28.28,28.28,0,0,0-3.2,1.63c1-1.51,2-3,2.91-4.54,2.47-3.9,4.88-7.88,7-12.1a53.63,53.63,0,0,0,3-6.69,19.67,19.67,0,0,0,1-3.95c0-.36.07-.76.09-1.16V5.61c0-.26,0-.54-.09-.8a6.19,6.19,0,0,0-1.25-2.92l-.34-.32c-.15-.13-.29-.28-.45-.41L84.63.83A4.47,4.47,0,0,0,83.52.32a3.39,3.39,0,0,0-.61-.16l-.6-.1C82,0,81.7,0,81.39,0A13.17,13.17,0,0,0,78.2.42a21.3,21.3,0,0,0-5.39,2.21,23.77,23.77,0,0,0-4.63,3.52,26,26,0,0,0-3.64,4.48c-.61.9-1.32,2.16-1.76,2.82-2.19,3.22-3.65,7.38-4.83,11.22-.84,2.65-1.51,5.3-2.24,7.76a26.22,26.22,0,0,1-1.18,3.34c-.11.21-.22.45-.33.63l-.14.23s0,0,0,0a.08.08,0,0,1,0,.05.09.09,0,0,1-.09,0l0,0s0,0-.1-.16a9.72,9.72,0,0,1-.49-1,44,44,0,0,1-1.94-6c-.57-2.12-1.08-4.32-1.59-6.64a42.93,42.93,0,0,0-2.32-7.47,16.18,16.18,0,0,0-1.69-3.06,8.05,8.05,0,0,0-1.42-1.54,6,6,0,0,0-2.21-1.22,5.5,5.5,0,0,0-2.61-.09,6.86,6.86,0,0,0-2.09.82,12.74,12.74,0,0,0-2.77,2.3c-.36.38-.62.69-.92,1s-.56.67-.8,1c-.49.66-1,1.34-1.5,2.07A17.45,17.45,0,0,0,30,19.27a8.77,8.77,0,0,0-.64,1.7,6.85,6.85,0,0,0-.2,2.1,8.86,8.86,0,0,0,1,3.42c.44.88.87,1.62,1.29,2.33l1.2,2.1c.77,1.38,1.48,2.76,2.16,4.14,1,2.08,2.12,3.81,2.82,5.73.29.81.57,1.55.82,2.24l-.65-.41-3.9-2.38c-2.2-1.38-4.49-2.69-6.75-4l-1.69-1L25.11,35l-.35-.13-.55-.2c-.33-.12-.66-.23-1-.33a28.27,28.27,0,0,0-4.05-.93s-.24,0-.61,0a13.6,13.6,0,0,0-1.55,0,16.74,16.74,0,0,0-5.45,1,15.83,15.83,0,0,0-6.47,4.62A21.75,21.75,0,0,0,.9,47a23.6,23.6,0,0,0-.75,9.13,12.73,12.73,0,0,0,3.57,7.94A9,9,0,0,0,7,65.83a13.21,13.21,0,0,0,2.57.49,20.75,20.75,0,0,0,2.38.1,43.65,43.65,0,0,0,7-.88c2.9-.58,6.16-1.44,9.34-2.36s6.28-1.88,8.85-2.6L39,60.09l.82-.2.3-.07a4.56,4.56,0,0,1,.57-.09,1,1,0,0,1,.71.09c.13.11.08.33,0,.47a2.61,2.61,0,0,1-.38.44l-.52.48-2.07,2a35.82,35.82,0,0,0-4.21,4.74,15.38,15.38,0,0,0-2.9,6.51,11.18,11.18,0,0,0,0,3.74,13.65,13.65,0,0,0,1,3.22,17.88,17.88,0,0,0,3,4.47,24.74,24.74,0,0,0,10.09,6.7,15.48,15.48,0,0,0,4.45.85,10.11,10.11,0,0,0,2.52-.23A7.56,7.56,0,0,0,55,92a7.73,7.73,0,0,0,2-2.17,11.19,11.19,0,0,0,1.12-2.43A19.29,19.29,0,0,0,59,82.79a42.17,42.17,0,0,0,.1-4.33q0-1.06-.09-2.1L58.9,75v-.48l0-.17s0-.05,0-.06.07,0,.09.07a3.12,3.12,0,0,1,.18.39l1,2A38.2,38.2,0,0,0,65,83.69a19.51,19.51,0,0,0,7.08,5.22A16.72,16.72,0,0,0,78,90.09a19.39,19.39,0,0,0,5.77-.71,16.29,16.29,0,0,0,5.48-2.58l.65-.51c.22-.18.43-.4.64-.6a9.69,9.69,0,0,0,1.21-1.44,7.93,7.93,0,0,0,.93-2,4.61,4.61,0,0,0,.24-1.16,6.67,6.67,0,0,0,0-1.17,9.29,9.29,0,0,0-.13-1.09c-.07-.34-.16-.67-.24-1a11.77,11.77,0,0,0-.7-1.68,16.32,16.32,0,0,0-1.71-2.69,35.73,35.73,0,0,0-3.83-4.15c-2.63-2.49-5.37-4.66-8-6.8a44.52,44.52,0,0,1-5-4.41c-.16-.2-.37-.41-.49-.58s-.32-.46-.25-.35a.28.28,0,0,1,0-.2.36.36,0,0,1,0-.09,2.92,2.92,0,0,1,.18-.36,4.83,4.83,0,0,1,.62-.83,9.91,9.91,0,0,1,2-1.59,28.78,28.78,0,0,1,5.3-2.49c3.83-1.42,7.92-2.49,12.06-3.73a58.46,58.46,0,0,0,7.62-2.74,15.78,15.78,0,0,0,4-2.53,8.8,8.8,0,0,0,1-1.08,7.12,7.12,0,0,0,1-1.65A6.51,6.51,0,0,0,106.54,36.13Zm-64.68,11h0v0Zm6.48,1.74c-.87-.12-.05-1.12-.13-1.79.3-.91,1.07-1.23,1.19-2a9.23,9.23,0,0,1,4.82-3.05c2.82-.08,6.34,1,7.69,4a13.33,13.33,0,0,1,3.3,8.29c.26,7.85-10.08,8.83-10.88.54-.28-1.15-2.36-2.08-3.24-2.44-1.28-.87-2.75-1.51-2.75-2.51Z"/></g></g></svg>