<svg xmlns="http://www.w3.org/2000/svg" viewBox="0 0 94.69 118.35"><defs><style>.cls-1{fill:#898989;}</style></defs><g id="Layer_2" data-name="Layer 2"><g id="Layer_1-2" data-name="Layer 1"><path class="cls-1" d="M14.92,24.09a7.68,7.68,0,0,0-7.66-.86,14,14,0,0,0-6.08,5.36A6,6,0,0,0,0,31.29,7.33,7.33,0,0,0,1.1,35.12,64,64,0,0,1,7.35,60.25a10.47,10.47,0,0,0,.72,4.21c.82,1.66,2.48,2.61,3.84,3.81C17.3,73,17.79,81.39,20.58,88.18c2.74,6.64,7.87,12,13.73,15.75s12.44,6.15,19.06,8.11a178.74,178.74,0,0,0,30.05,6.12c2.13.25,4.4.43,6.3-.6,3.19-1.71,4.1-6,4.39-9.76a6,6,0,0,0-.29-3,4.94,4.94,0,0,0-2-2c-7.74-4.87-17.51-2.57-26.46-1.43a91.44,91.44,0,0,1-15.43.64c-2.29-.1-5.08-.65-5.85-2.94L66.5,97.65c4-.25,8-.53,11.64-2.18s6.84-5,7.29-9.15c.5-4.43-2.18-8.59-5.29-11.61a12.62,12.62,0,0,0-5.6-3.52,5.65,5.65,0,0,0-5.94,2c-2.39,3.43.25,9-2.33,12.24a7.47,7.47,0,0,1-3.78,2.24,30.32,30.32,0,0,1-13.17,1.19c-1.17-.15-2.65-.76-2.57-2a2.49,2.49,0,0,1,.53-1.21c3.55-5,9.51-7.31,14.63-10.51,5.81-3.64,10.72-8.65,15.57-13.61,6.67-6.82,13.57-14,16.51-23.31,1.19-3.77,1.12-8.93-2.31-10.57-2.25-1.07-4.92,0-6.89,1.54-7.93,6.24-9.14,19.22-17.44,24.91a1.57,1.57,0,0,1-1.44.36,1.53,1.53,0,0,1-.68-1.26c-.41-3.64,3.09-6.22,5.82-8.5A31.26,31.26,0,0,0,81.74,24.81a4.22,4.22,0,0,0-.42-3,3.55,3.55,0,0,0-1.3-1,14.12,14.12,0,0,0-17.2,3.9C60,28.26,59,32.94,57.68,37.37A98.31,98.31,0,0,1,29.5,82.71c-1-4.92,1.27-9.86,3.63-14.24,9.09-16.88,20.46-32.95,24.6-51.86a17.57,17.57,0,0,0,.45-7.13c-.46-2.35-2-4.62-4.14-5.29-3.43-1.06-6.82,2.12-8.3,5.55-2.2,5.1-2,10.94-2.82,16.47a40.45,40.45,0,0,1-6.76,16.93c-2.44-2.7-3-6.77-2.54-10.46S35.56,25.53,36.73,22A75,75,0,0,0,39.46,11.1a11.31,11.31,0,0,0-.09-5.78A8.12,8.12,0,0,0,34.79.92C29.63-1.3,22.85.58,20.27,5.78c-2.14,4.32-1.1,9.55,0,14.28q3.3,14.39,6.59,28.76c.61,2.68,1.23,5.5.52,8.15s-3.21,5-5.76,4.36c-3.24-.79-4.06-5.16-4.23-8.65-.45-9.54-1.82-17.32-2.28-26.86Z"/></g></g></svg>