<svg xmlns="http://www.w3.org/2000/svg" viewBox="0 0 104.75 95.62"><defs><style>.cls-1{fill:#898989;}</style></defs><g id="Layer_2" data-name="Layer 2"><g id="Layer_1-2" data-name="Layer 1"><path class="cls-1" d="M71.66,47.05c-4.93.55-3.45,23.94-6.21,35.83-2.13,8.55-12.64,14-20.6,10.37C34.25,87.39,37,65,39.49,54.48c1.09-4.59,2.18-13.76,0-13.76s-3.63,2.93-3.8,4.23C34,57.71,32.62,70.5,31,83.26s-21.53,17-27,6.29A18,18,0,0,1,.16,77.94C-.43,56.73,0,34.36,13.06,16.81,36.4-14.75,92.9,1.35,102.39,38.41c3.14,13.73,6.65,56.06-14.64,53.3-5.18-.85-10.12-5.81-10.2-10.6-.13-8.53-.25-16.57-.09-25.61S74.41,46.49,71.66,47.05Z"/></g></g></svg>