<svg xmlns="http://www.w3.org/2000/svg" viewBox="0 0 74.82 95.69"><defs><style>.cls-1{fill:#898989;}</style></defs><g id="Layer_2" data-name="Layer 2"><g id="Layer_1-2" data-name="Layer 1"><path class="cls-1" d="M74.64,46.08c-1.18,11.1-2.33,22.4-3.58,33.68-1,8.86-5.13,15.54-16.12,15.85a262.9,262.9,0,0,1-40.21-2.42c-6.82-.85-10.66-6.76-12.35-13.5C-1.52,64.17.5,48.41.7,32.73a87.72,87.72,0,0,1,1.65-14C4.43,7,12,.3,24,.07A268.63,268.63,0,0,1,51,.78C65.83,2,73.31,9.7,74.55,24.92,75.11,31.85,74.64,38.87,74.64,46.08Z"/></g></g></svg>