<svg xmlns="http://www.w3.org/2000/svg" viewBox="0 0 111.31 90.02"><defs><style>.cls-1{fill:#898989;}</style></defs><g id="Layer_2" data-name="Layer 2"><g id="Layer_1-2" data-name="Layer 1"><path class="cls-1" d="M107.61.52c1.18,2,2.72,22.17,3.57,32.79.82,10.24-2.39,14.77-8.23,17A308.48,308.48,0,0,1,73.23,63.94c-18,6.74-43,17.17-64.52,25.52-4.56,1.77-6.88-.61-7.43-7.67C.54,72.33-.22,62.74.06,53.29c.09-3.14-.12-8.14,2-9.17,13-6.22,29.67-13.74,42.68-19.82,10.44-4.87,20.32-9.53,30.83-13.87C85.85,6.2,105.92-2.16,107.61.52Z"/></g></g></svg>