<svg xmlns="http://www.w3.org/2000/svg" viewBox="0 0 97.01 60.31"><defs><style>.cls-1{fill:#898989;}</style></defs><g id="Layer_2" data-name="Layer 2"><g id="Layer_1-2" data-name="Layer 1"><path class="cls-1" d="M83,14.43C79.86,22.64,77.49,38,51,43.16,36.35,46,18.88,36.83,16.54,27,15.38,22.09,12,12.07,12,7,12,7,6.2-3.63,1.32,1.3S5.26,45.6,25,54.9C63.87,74.09,86.88,36.59,93.12,30c5.55-5.85,4.5-26.34,1-28.73C86.88-3.63,83,14.43,83,14.43ZM30.52,39.67c0,.07,0,.14,0,.21S30.53,39.8,30.52,39.67Z"/></g></g></svg>