<svg xmlns="http://www.w3.org/2000/svg" viewBox="0 0 91.65 109.59"><defs><style>.cls-1{fill:#898989;}</style></defs><g id="Layer_2" data-name="Layer 2"><g id="Layer_1-2" data-name="Layer 1"><path class="cls-1" d="M32.2,10.88C40.56,6.37,49.12,1.79,58.42.39s19.65.92,25.84,8.37c5.9,7.09,7,17.2,7.26,26.62a269.63,269.63,0,0,1-.9,31.91,19.35,19.35,0,0,1-1.45,6.77c-1.22,2.56-3.46,4.41-5.66,6.11A163.13,163.13,0,0,1,24.86,109c-2,.5-4.14.95-5.93,0s-2.61-3-3.36-4.82C8.33,86.09,2.36,66.28.31,46.7-2.31,21.73,12.13,21.7,32.2,10.88Z"/></g></g></svg>