<svg xmlns="http://www.w3.org/2000/svg" viewBox="0 0 85.56 74.47"><defs><style>.cls-1{fill:#898989;}</style></defs><g id="Layer_2" data-name="Layer 2"><g id="Layer_1-2" data-name="Layer 1"><path class="cls-1" d="M70.81,8.08c-1-.41-4.06,3.67-5.07,5.58a27.88,27.88,0,0,0-3.28,15.87c1,11.95-.45,23.6-6,34.36-3.16,6.16-8.67,7.79-14.67,7.42-5.78-.36-9-3.73-10.44-10.65-2.08-9.83-3.13-19.89-4.72-29.83a18,18,0,0,0-1.76-5.7c-2.31-4.21-8.82-4.17-10.71.22A27.63,27.63,0,0,0,12,35c-.34,9.41-.2,18.84-.32,28.26,0,2-.32,4-.54,6-.26,2.5-1.13,4.35-3.95,4.47s-5.33-.63-5.79-3.88A118.89,118.89,0,0,1,.12,55.06C0,47.54-.23,39.94.6,32.51,1.68,22.72,6.23,15.08,15.77,11.9a9.28,9.28,0,0,1,3.38-.46c5.45.38,14.75,8.1,15.7,13.7,1.5,8.84,2.39,17.79,3.61,26.67a32.87,32.87,0,0,0,1.45,7c.9,2.4,2.6,5.17,5.3,4.1A9.08,9.08,0,0,0,50,57.58a79.19,79.19,0,0,0,1.87-14c.64-8.32.58-16.73,1.73-25a37.91,37.91,0,0,1,4.88-13.8c4.17-7,16.34-6.21,21.52,1,4.33,6,5.09,13.08,5.34,19.78.52,14.62-.18,29.29-.54,43.93,0,2.32-.4,5.17-3.77,4.9-3.09-.24-4.49-2.34-4.61-5.4-.36-9-.43-18-1-27-.64-9.51-1.72-19-2.73-28.46C72.53,12.13,72.11,8.49,70.81,8.08Z"/></g></g></svg>