<svg xmlns="http://www.w3.org/2000/svg" viewBox="0 0 75.63 69.03"><defs><style>.cls-1{fill:#898989;}</style></defs><g id="Layer_2" data-name="Layer 2"><g id="Layer_1-2" data-name="Layer 1"><path class="cls-1" d="M.06,42C-.06,22.07,9.54,10.13,24.32,2.1,29.86-.92,36.6,0,42.93.75,60.26,2.86,72.25,19.4,75,34.81c1.84,10.28-.19,19.65-7.15,27.63A8.83,8.83,0,0,1,64,65.06c-12.34,3.6-24.82,5.51-37.6,2.42C22.52,66.55,18.5,66,14.92,64.4,4.48,59.81-.64,51.65.06,42ZM37,48.65c6,.17,12-5.34,12.07-11,.09-9-5-13.89-14.87-14.14C29.84,23.39,24,30,23.65,35.43,23.3,41.24,30.57,48.46,37,48.65Z"/></g></g></svg>