<svg xmlns="http://www.w3.org/2000/svg" viewBox="0 0 164.11 95.69"><defs><style>.cls-1{fill:#898989;}</style></defs><g id="Layer_2" data-name="Layer 2"><g id="Layer_1-2" data-name="Layer 1"><path class="cls-1" d="M163.71,46.08c-2.58,11.1-5.11,22.4-7.85,33.68-2.16,8.86-11.25,15.54-35.36,15.85-29.36.39-59-.75-88.2-2.42-15-.85-23.37-6.76-27.08-13.5-8.55-15.52-4.12-31.28-3.69-47,.13-4.69,1.83-9.4,3.63-14C9.72,7,26.22.3,52.55.07c19.78-.18,39.66,0,59.37.71C144.39,2,160.8,9.7,163.5,24.92,164.73,31.85,163.71,38.87,163.71,46.08Z"/></g></g></svg>