<svg xmlns="http://www.w3.org/2000/svg" viewBox="0 0 101.66 85.51"><defs><style>.cls-1{fill:#898989;}</style></defs><g id="Layer_2" data-name="Layer 2"><g id="Layer_1-2" data-name="Layer 1"><path class="cls-1" d="M94.54,4.4A156.12,156.12,0,0,0,39.26,1.05C30.06,2.08,19,2.65,11,8.18c-8.79,6.09-13.36,17-9.12,27.57,4,9.94,13.5,14.56,23.11,15.92,4.8.67,9.63.95,14.44,1.42,2.07.2,4.15.42,6.22.66l3.1.39c2,.27.93.13.48.06l2.06.32c4.46.7,8.89,1.57,13.27,2.68,1.91.48,3.83,1,5.7,1.64.37.12,2.47,1,1.45.52s.12.08.27.18l1.37.81c1.51.9.16.14-.13-.17a9.31,9.31,0,0,0,.82.84c.79.64-.25-.28-.33-.52.08.24.85,1.29.22.2s0-.09.05.27.06,1.42.08.2c0-1.9.15,1.54,0-.34-.1-1.26-.14.2-.17.61-.09,1,.1-.39.3-.6-.2.21-.56,1.38,0,.31s.09-.09-.2.2-1.17.87-.28.29-.53.18-.76.35c-.89.61.22-.12.42-.18-1,.29-1.91.63-2.9.86-.5.12-3.31.51-1.83.38-1.33.12-2.66.22-4,.26-2.51.07-5,0-7.54-.08C52,63.07,46.85,63,41.73,63.05c-10.65.1-21.3.71-31.91,1.76C4.73,65.31-.24,69.2,0,75.14.23,80.3,4.35,86,9.82,85.47,19,84.56,28.24,84,37.47,83.78s18.46.51,27.67.18c9.55-.35,20.8-2.73,25.85-12.34,5.36-10.21,2-21.85-6.75-28.42-6.71-5.07-16.15-6.57-24.1-8-9.58-1.73-19.25-2.68-28.92-3.5l-2.94-.28c-.05,0-1.65-.21-.64-.06s-.59-.11-.64-.13c-.95-.2-1.91-.4-2.84-.68-.47-.14-.93-.3-1.39-.46-1.06-.37.7.55-.6-.3-.71-.47-1.81-1.4-.59-.23C21,29,20.47,28.39,19.9,27.84c.14.13.82,1.44.37.47a8.82,8.82,0,0,0-.59-1c.16.23.75,2.1.14.25-.39-1.18-.1-.4,0,.4-.19-1.79-.51,1.26,0-.46s-.79,1,.26-.49c.13-.17.92-1.19.15-.28s.38-.23.55-.49c.56-.82-.27.12-.48.28.42-.32.86-.62,1.31-.9s2.49-1.15,1.12-.66c.91-.33,1.82-.63,2.75-.89a63.89,63.89,0,0,1,6.69-1.35l1.53-.24c.17,0,2-.31,1.25-.2-.94.14.74-.09.73-.09l2.57-.32c2.39-.28,4.78-.52,7.18-.7,5-.38,10-.56,14.94-.48a144.08,144.08,0,0,1,15.39,1l1.53.2c1.7.22-1.24-.24.44.07,1.18.22,2.37.39,3.55.61,2.7.5,5.39,1.1,8.06,1.77,5,1.25,10.86-1.65,12.07-7.22,1.15-5.3-1.51-11.37-6.86-12.71Z"/></g></g></svg>