<svg xmlns="http://www.w3.org/2000/svg" viewBox="0 0 108.83 65.58"><defs><style>.cls-1{fill:#898989;}</style></defs><g id="Layer_2" data-name="Layer 2"><g id="Layer_1-2" data-name="Layer 1"><path class="cls-1" d="M108.83,58.48A542.32,542.32,0,0,1,.63,65.18c-1.18-13.86-1-29.27,3-42.55C4.67,19,6,15.41,8.25,12.5,14.93,4,28,4.56,37,10.28A38.11,38.11,0,0,1,53.78,38.72c.09-9.56,1.72-19.45,6.92-27.29S75.31-1.66,84.16.48c7.32,1.77,13,8.17,16.11,15.36s4.06,15.17,5,23C106,45.36,108.07,52,108.83,58.48Z"/></g></g></svg>