<svg xmlns="http://www.w3.org/2000/svg" viewBox="0 0 129.09 113.18"><defs><style>.cls-1{fill:#898989;}</style></defs><g id="Layer_2" data-name="Layer 2"><g id="Layer_1-2" data-name="Layer 1"><path class="cls-1" d="M83.63,0c.63,11,1.17,20.21,1.82,31.34l23.13-18.28.87.58-12.6,29.8c5.7.87,10.72,1.58,15.72,2.42s10,1.83,16.52,3L100.63,62.77l25.09,15.16H94.15l8.11,25-.94.78L76.68,87.54l3.86,25.64L61,87.71,44.15,108.35V77.11L20.37,95.49l-1.1-.83L32.35,68.23,0,62.2l29.49-11,.18-1.54L8.07,40l0-.93L38.7,37.67,26.4,10.36,52.12,25l1.52-.94Q52.26,13.76,50.89,3.44l1.79-1C57.3,8.71,61.91,15,67,22Z"/></g></g></svg>