<svg xmlns="http://www.w3.org/2000/svg" viewBox="0 0 118.34 59.35"><defs><style>.cls-1{fill:#898989;}</style></defs><g id="Layer_2" data-name="Layer 2"><g id="Layer_1-2" data-name="Layer 1"><path class="cls-1" d="M118.24,49.06c0-.17-.06-.36-.1-.51l-.1-.33-.19-.64a22.42,22.42,0,0,0-.93-2.32,40.57,40.57,0,0,0-4.84-7.78l-3-3.82c-1.13-1.42-2.27-2.83-3.46-4.19-2.29-2.61-4.8-4.56-7.51-7.18a45.47,45.47,0,0,0-12-8.16,30.87,30.87,0,0,0-8.46-2.64c-.76-.07-1.5-.18-2.26-.22a21.85,21.85,0,0,0-2.29,0,23.66,23.66,0,0,0-4.54.65,48.1,48.1,0,0,1-5.74,1.34,16.81,16.81,0,0,1-5.25-.1L56.78,13a3.45,3.45,0,0,1-.65-.27c-.74-.47-1.45-.93-2.26-1.54s-1.73-1.35-2.68-2.1a41.27,41.27,0,0,0-5.7-3.76,55.66,55.66,0,0,0-6.07-2.83,39.05,39.05,0,0,0-4-1.33C34.05.77,32.65.42,31.1.16A12.17,12.17,0,0,0,28.57,0,17.64,17.64,0,0,0,26,.34a19.67,19.67,0,0,0-3.69,1.18c-1.12.48-2.16,1-3.17,1.48-.44.21-.9.42-1.26.63a29.92,29.92,0,0,1-5.18,2.23A36.43,36.43,0,0,0,7.12,8.29a31.82,31.82,0,0,0-3.35,2.54C2.17,11.92,1.1,13,1.11,13.64s-.14,1.43.25,1.77h0c-.09.08,0,.32.16.68l-.05,0c-.15-.08-.29-.14-.43-.23a.72.72,0,0,1-.37-.45,1.42,1.42,0,0,1,.09-.72c0-.12-.07-.18-.35.08a1.24,1.24,0,0,0-.31.54,2,2,0,0,0-.06.27c0,.1,0,.21,0,.26a3.16,3.16,0,0,0,.08.74,9.69,9.69,0,0,0,1.64,3.07c.56.79,1.16,1.55,1.73,2.31,1.94,2.61,4.27,5,5.89,7.67l.52.7.54.76.28.43.35.58a8.71,8.71,0,0,0,1.28,1.7,4.38,4.38,0,0,0,2.48,1.33,4.28,4.28,0,0,0,1.51,0,6.53,6.53,0,0,0,.76-.2l.62-.24c.74-.32,1.33-.64,1.92-1a25.38,25.38,0,0,1,3.45-1.54l1-.35c.35-.12.69-.26,1-.41.17-.07.34-.13.5-.21l.34-.17.24-.12a9.54,9.54,0,0,0,.83-.5c.23-.14.45-.28.63-.23s.15.2.13.29a1.15,1.15,0,0,1-.07.22l-.07.18c-.07.21-.29.6-.5,1.08-.07.17,0,0-.28.77a12.14,12.14,0,0,0-.44,1.82,7.65,7.65,0,0,0,0,2.25,5.74,5.74,0,0,0,.91,2.39,5.36,5.36,0,0,0,.8,1l.4.38.29.24,1.14,1L32,43.43c1.34,1.07,2.44,1.9,3,2.33A67.09,67.09,0,0,0,45.21,52a30.75,30.75,0,0,0,6.92,2.42,17.52,17.52,0,0,0,5.33.33A12.74,12.74,0,0,0,62.87,53a12.05,12.05,0,0,0,2.35-1.91A15.55,15.55,0,0,0,67,48.71a35.9,35.9,0,0,0,3.68-9.85c.15-.54.29-1.07.44-1.56.07-.25.15-.5.22-.72l.12-.34,0-.09h0c0-.08.11-.16.19-.13a.29.29,0,0,1,.11.06,7.65,7.65,0,0,1,.67.62,16.43,16.43,0,0,1,1.91,2.55,38.37,38.37,0,0,1,3.67,8.1c.53,1.6,1,3.24,1.4,4.89.21.82.4,1.65.58,2.48L80.3,56l0,.19.08.3a3.65,3.65,0,0,0,.18.47,3,3,0,0,0,.59.85l.27.26a3.05,3.05,0,0,0,.48.3,2.54,2.54,0,0,0,1.13.31,3.08,3.08,0,0,0,.61,0,2.34,2.34,0,0,0,.4-.11,2.87,2.87,0,0,0,.63-.3,2.51,2.51,0,0,0,.37-.27l.2-.19a4.81,4.81,0,0,0,.64-.86c.11-.19.18-.33.25-.47.49-1.05.77-1.81,1.11-2.62l.48-1.16L88,52.1h0c0-.05.08-.12.13-.06l0,0,0,0,.2.19.39.39c.52.52,1,1,1.53,1.58a12.4,12.4,0,0,0,2,1.81c.74.51,1.4.88,2,1.26.15.1.37.22.59.34s.45.24.66.33a12,12,0,0,0,1.32.52,17.64,17.64,0,0,0,2.57.6,23.39,23.39,0,0,0,5,.19,25.61,25.61,0,0,0,4.88-.8,18.26,18.26,0,0,0,4.85-2,10.33,10.33,0,0,0,2.27-1.88,5.43,5.43,0,0,0,.54-.67,7.62,7.62,0,0,0,.89-1.71,5.3,5.3,0,0,0,.27-1,5.45,5.45,0,0,0,.08-1.07A4.79,4.79,0,0,0,118.24,49.06Z"/></g></g></svg>