<svg xmlns="http://www.w3.org/2000/svg" viewBox="0 0 111.31 37.29"><defs><style>.cls-1{fill:#898989;}</style></defs><g id="Layer_2" data-name="Layer 2"><g id="Layer_1-2" data-name="Layer 1"><path class="cls-1" d="M107.61.22c1.18.82,2.72,9.18,3.57,13.58.82,4.24-2.39,6.12-8.23,7-9.8,2.14-19.74,4-29.72,5.65-18,2.79-43,7.11-64.52,10.57-4.56.74-6.88-.25-7.43-3.17C.54,30-.22,26,.06,22.07c.09-1.3-.12-3.37,2-3.8,13-2.57,29.67-5.69,42.68-8.2,10.44-2,20.32-3.95,30.83-5.75C85.85,2.57,105.92-.9,107.61.22Z"/></g></g></svg>