<svg xmlns="http://www.w3.org/2000/svg" viewBox="0 0 85.96 79.95"><defs><style>.cls-1{fill:#898989;}</style></defs><g id="Layer_2" data-name="Layer 2"><g id="Layer_1-2" data-name="Layer 1"><path class="cls-1" d="M64.75,42.93c2,.87,4.1,1.69,6.11,2.62,10.25,4.75,14,11.83,11.73,22.85-.9,4.43-3.85,7.94-8,8.82-21.08,4.43-42,3.82-62.27-4.56C6.89,70.42,1.88,67.19.32,60.51c-1.63-7,3.23-16.57,10-18.73,4-1.26,8-2.42,12.44-3.77-3.28-2.35-6.29-4.13-8.85-6.42C4.58,23.22,7.11,9,18.57,3.82,27.16,0,36.26-.43,45.32.31a95,95,0,0,1,28.53,7C84.91,11.81,88.66,24,84,33.93c-2.43,5.13-7.83,5.87-12.77,6.88-2.13.44-4.3.64-6.45.95Z"/></g></g></svg>