<svg xmlns="http://www.w3.org/2000/svg" viewBox="0 0 179.75 129.73"><defs><style>.cls-1{fill:#898989;}</style></defs><g id="Layer_2" data-name="Layer 2"><g id="Layer_1-2" data-name="Layer 1"><path class="cls-1" d="M14.45,3.57a123.66,123.66,0,0,0-13,32.33C-1,46.32-1.66,61,10.83,64.39,21.29,67.23,31.1,55.31,37.5,48.3c7.23-7.92,14.42-16.38,25.26-18.08L54,25c1.19,3.12,0,5.76-1,8.81-1.13,3.53-2.23,7.06-3.17,10.66a171.11,171.11,0,0,0-4.06,22.05C45,73,43.3,81.09,47.89,86.44c4,4.67,10.59,4.67,15.89,2.92C75,85.66,82.25,75.34,88,65.17c2.8-4.94,5.35-10.1,8.82-14.57a35.44,35.44,0,0,1,4.81-5.2,19.48,19.48,0,0,1,2.9-2c1.14-.67,3.51-.93,4.4-1.69l.77-.1q-2.28-5.13-1.9-2.74c-.43.51-1,3.47-1.18,4-1.16,3.47-2.49,6.89-3.71,10.34a94.19,94.19,0,0,0-5.26,21c-1.24,11,1.09,33.21,16.63,28.88,10.58-3,17.39-13.48,22.08-23.12,2.2-4.53,4.13-9.21,6.49-13.64,1-2,2.81-5.63,5.09-6.28,1.65-.46,1,2.1.58,4.14-.83,4.16-2.71,8-3.61,12.21a74.73,74.73,0,0,0-1.49,10.94,64.6,64.6,0,0,0,3.36,24.89c2.29,6.49,5.9,12.7,12.08,15.72a16,16,0,0,0,18.65-3c6.73-6.59-3.37-17.17-10.08-10.61-3.38,3.31-7.07-6.49-7.66-8.46A51.91,51.91,0,0,1,158,84c1-7.29,4.8-14,5.12-21.36.29-6.67-2.64-13.34-8.46-16.36-12.88-6.67-22.33,8.45-27.09,18.67a144.09,144.09,0,0,1-7.34,14.65c-2.1,3.41-6.2,9.27-10.53,9l3.59,1c.15.07-.11,1.15-.14,0a10.49,10.49,0,0,0-.65-2,26.73,26.73,0,0,1-.85-4.71,40.44,40.44,0,0,1,.85-11.72c1.63-7.77,4.66-15.1,7.27-22.54,2.07-5.91,4-13.28-.81-18.47-4.54-4.93-12-4-17.57-1.69-11.67,4.8-18.6,16.37-24.62,27.27-3,5.37-6.06,10.75-10.41,15A18.06,18.06,0,0,1,60,74.9a17.35,17.35,0,0,1-3.06.58l1.07.85c.87,1.18,1.24,1.23,1.1.15.38-.51.17-2.81.23-3.49A144.83,144.83,0,0,1,64,46.65c2.22-8.18,7-17.11,3.71-25.65-1.56-4.13-4.57-5.9-8.76-5.24C41.35,18.52,31.88,34.86,19.26,46c-1.17,1-2.77,2.8-4.25,3.24-1.19.35-.33,1.39-1-.3-1.27-3.23,1.21-9.33,2.06-12.43A107.79,107.79,0,0,1,26.75,11.15c4.75-8.29-7.56-15.84-12.3-7.58Z"/></g></g></svg>