<svg xmlns="http://www.w3.org/2000/svg" viewBox="0 0 203.64 200.56"><defs><style>.cls-1{fill:#898989;}</style></defs><g id="Layer_2" data-name="Layer 2"><g id="Layer_1-2" data-name="Layer 1"><path class="cls-1" d="M87.34,200.51c5.39-8.59,15.49-12.56,24.7-16s16.54-8.1,26.08-10.35c21.08-5,41.5-13.56,59.34-26.39,3.39-2.44,7.09-6.17,6-10.33-.59-2.2-2.41-3.75-4.21-5a48.52,48.52,0,0,0-44.46-5.94c-23.23,8.66-37.12,33.68-58.06,47.34C98.3,161.25,106.94,151,116,142.63s19-16.11,25.12-27c.62-1.12,1.21-2.51.65-3.67a3.35,3.35,0,0,0-2.33-1.56c-10.71-2.73-20.86,11.76-31.25,7.92,16.36-21.79,45.36-26.45,69.14-38.51C181.36,77.69,186,74,185,69.33c-1.2-5.51-8.45-5.77-13.15-8.5-1.89-1.1-3.51-2.76-5.56-3.5-4-1.46-8.31,1-12,3.19a132.74,132.74,0,0,1-37,14.83c-2.2.51-4.83.84-6.4-.85-2.89-3.1,1.14-7.94,4.87-9.79,9.95-4.94,21-7.12,30.94-12,6.8-3.31,13.87-9.66,12.68-17.44-.77-5.05-4.81-8.74-8.67-11.84C137.39,12.8,122.7,3.28,106.27.6,97-.92,86.61.19,79.79,7c-7.36,7.33-8.32,20.69-2.08,29.1,2.44,3.29,6,6.62,5.26,10.72s-6.2,5.92-9.94,4.14-6-5.72-7.93-9.55c-3.85-7.76-6.95-16-11.59-23.24S42.32,4.46,34.22,2.45a12.18,12.18,0,0,0-7.76.27c-4.9,2.13-6.91,8.55-6.36,14.11.95,9.59,7.45,17.49,14.2,24C50.33,56.31,67.63,61,82.53,77.7c4.56,5.1,8.79,10.88,10.29,17.7s-.38,14.87-5.95,18.68c-5.38,3.68-12.59,2.58-18.43-.22-10.88-5.2-17-8.35-23.5-18.9s-12-21.89-19.83-31.4c-2.76-3.35-5.92-6.54-9.84-8.17S6.49,54,3.32,56.93c-3.39,3.16-4,8.7-2.6,13.23S5.3,78.37,8.58,81.65C19.25,92.3,32.17,100.06,44.19,109s23.6,19.5,29.71,33.58c1.42,3.27,2.54,6.85,2.11,10.41s-2.79,7.08-6.14,7.73c-5,1-8.89-4.17-11.74-8.57-8.42-13-18.8-25.17-32.28-32-3.59-1.82-7.71-3.24-11.52-2a12.11,12.11,0,0,0-6.19,5.24c-4.06,6.45-3.59,15.22-.41,22.19s8.7,12.46,14.44,17.29c19.35,16.27,42.35,26.84,65.06,37.22C85.37,199.85,89.21,200.77,87.34,200.51Z"/></g></g></svg>