<svg xmlns="http://www.w3.org/2000/svg" viewBox="0 0 68.57 87.95"><defs><style>.cls-1{fill:#898989;}</style></defs><g id="Layer_2" data-name="Layer 2"><g id="Layer_1-2" data-name="Layer 1"><path class="cls-1" d="M0,50.91A46.21,46.21,0,0,1,6.29,26c3-5.25,5.85-11,10.1-14.88C26.73,1.53,37.52-.66,53.11.16c2.21.48,3.9,0,6.53,1.05,5.7,2.28,10.12,6.33,8.63,12.5C66.71,20.19,62.69,25,59.52,30.45c-3.86,6.63-7.64,13.31-11.58,19.89-5.29,8.83-10.71,17.57-16,26.38A34.34,34.34,0,0,0,28.59,83c-3.54,5.77-10.11,5.87-14.46,3.31C5.23,81.1,2.75,73,1,62.54.41,58.71.36,54.79,0,50.91Z"/></g></g></svg>